<mxfile host="app.diagrams.net" agent="Mozilla/5.0 (X11; Linux x86_64) AppleWebKit/537.36 (KHTML, like Gecko) Chrome/133.0.0.0 Safari/537.36" version="28.0.7">
  <diagram name="FideloBot ERD" id="diagram_1">
    <mxGraphModel dx="1699" dy="452" grid="1" gridSize="10" guides="1" tooltips="1" connect="1" arrows="1" fold="1" page="1" pageScale="1" pageWidth="827" pageHeight="1169" math="0" shadow="0">
      <root>
        <mxCell id="0" />
        <mxCell id="1" parent="0" />
        <mxCell id="negocio" value="&lt;b&gt;Negocio&lt;/b&gt;&lt;br&gt;- id_negocio&lt;br&gt;- nombre&lt;br&gt;- correo" style="shape=swimlane;fillColor=#FFF2CC;rounded=1;fontSize=12;" parent="1" vertex="1">
          <mxGeometry x="60" y="60" width="180" height="100" as="geometry" />
        </mxCell>
        <mxCell id="cliente" value="&lt;b&gt;Cliente&lt;/b&gt;&lt;br&gt;- id_cliente&lt;br&gt;- nombre&lt;br&gt;- correo&lt;br&gt;- cumpleaÃ±os&lt;br&gt;- negocio_id" style="shape=swimlane;fillColor=#FFF2CC;rounded=1;fontSize=12;" parent="1" vertex="1">
          <mxGeometry x="300" y="60" width="200" height="120" as="geometry" />
        </mxCell>
        <mxCell id="compra" value="&lt;b&gt;Compra&lt;/b&gt;&lt;br&gt;- id_compra&lt;br&gt;- cliente_id&lt;br&gt;- monto&lt;br&gt;- fecha" style="shape=swimlane;fillColor=#FFF2CC;rounded=1;fontSize=12;" parent="1" vertex="1">
          <mxGeometry x="60" y="220" width="200" height="100" as="geometry" />
        </mxCell>
        <mxCell id="puntaje" value="&lt;b&gt;Puntaje&lt;/b&gt;&lt;br&gt;- id_puntaje&lt;br&gt;- cliente_id&lt;br&gt;- total_puntos" style="shape=swimlane;fillColor=#FFF2CC;rounded=1;fontSize=12;" parent="1" vertex="1">
          <mxGeometry x="300" y="220" width="200" height="80" as="geometry" />
        </mxCell>
        <mxCell id="rel1" style="endArrow=block;html=1;" parent="1" source="negocio" target="cliente" edge="1">
          <mxGeometry relative="1" as="geometry" />
        </mxCell>
        <mxCell id="rel2" style="endArrow=block;html=1;" parent="1" source="cliente" target="compra" edge="1">
          <mxGeometry relative="1" as="geometry" />
        </mxCell>
        <mxCell id="rel3" style="endArrow=block;html=1;" parent="1" source="cliente" target="puntaje" edge="1">
          <mxGeometry relative="1" as="geometry" />
        </mxCell>
      </root>
    </mxGraphModel>
  </diagram>
</mxfile>
